PathFileType	4	(X/Y/Z)	D:\TRACE\v60_Jaco2_6-2-23\BothDRS_Motion3_4-platform.trc
DataRate	CameraRate	NumFrames	NumMarkers	Units	OrigDataRate	OrigDataStartFrame	OrigNumFrames
100.00	100.00	      30	5	mm	100.00	1	      7000
Frame#	Time	Left_Front			Right_Front			Left_Aft			Right_Aft			Post			
		X1	Y1	Z1	X2	Y2	Z2	X3	Y3	Z3	X4	Y4	Z4	X5	Y5	Z5	

1	0.000	-814.73352	128.54016	-611.80414	755.80121	125.69859	-588.82104	-745.32251	-73.84823	506.86197	668.67737	-92.41515	608.09076	-21.69868	1462.19580	-684.24750	
2	0.010	-814.70184	128.56044	-611.80090	755.80804	125.68559	-588.84058	-745.34473	-73.85763	506.83948	668.66492	-92.44897	608.08667	-21.65744	1462.21460	-684.24475	
3	0.020	-814.70874	128.51138	-611.79889	755.83679	125.68909	-588.79852	-745.36139	-73.84160	506.87296	668.70648	-92.42162	608.12238	-21.67555	1462.21521	-684.22290	
4	0.030	-814.70618	128.50304	-611.75562	755.82379	125.67318	-588.81525	-745.31665	-73.88426	506.86057	668.70502	-92.48116	608.06757	-21.70296	1462.17786	-684.23645	
5	0.040	-814.69739	128.47719	-611.82556	755.81250	125.65888	-588.81720	-745.34216	-73.87241	506.88397	668.68701	-92.44666	608.07526	-21.69186	1462.14563	-684.22717	
6	0.050	-814.65894	128.45071	-611.78510	755.84253	125.66198	-588.79840	-745.31561	-73.88533	506.85794	668.66187	-92.47392	608.08667	-21.69985	1462.17078	-684.21210	
7	0.060	-814.67529	128.43221	-611.78662	755.85437	125.66287	-588.79163	-745.33130	-73.88338	506.85580	668.65363	-92.47672	608.08197	-21.73179	1462.15552	-684.22638	
8	0.070	-814.65948	128.44618	-611.83002	755.85706	125.65495	-588.80341	-745.30432	-73.86385	506.88998	668.68085	-92.49896	608.07007	-21.63055	1462.17395	-684.20313	
9	0.080	-814.65765	128.46117	-611.79657	755.82129	125.67266	-588.82281	-745.31970	-73.88207	506.83710	668.70294	-92.44357	608.06409	-21.65307	1462.18347	-684.21960	
10	0.090	-814.60779	128.40274	-611.80994	755.83527	125.65933	-588.79120	-745.30621	-73.87418	506.86267	668.76343	-92.47753	608.06238	-21.73495	1462.11255	-684.22162	
11	0.100	-814.62793	128.42607	-611.78534	755.84662	125.66735	-588.78076	-745.31360	-73.91541	506.87875	668.69922	-92.44927	608.06952	-21.70339	1462.12317	-684.20538	
12	0.110	-814.62891	128.41295	-611.82813	755.83008	125.66846	-588.78900	-745.31580	-73.91451	506.89618	668.71008	-92.40512	608.10138	-21.69609	1462.16577	-684.22113	
13	0.120	-814.66907	128.47249	-611.79352	755.85455	125.70129	-588.81415	-745.29669	-73.85967	506.88260	668.69922	-92.41357	608.09827	-21.73719	1462.18835	-684.24371	
14	0.130	-814.67389	128.47380	-611.80048	755.86865	125.68864	-588.80933	-745.31995	-73.86536	506.87381	668.70020	-92.44787	608.06238	-21.67422	1462.20105	-684.25793	
15	0.140	-814.70526	128.50035	-611.76581	755.85693	125.68081	-588.81427	-745.28705	-73.85378	506.86639	668.69830	-92.45092	608.06226	-21.68435	1462.19690	-684.26978	
16	0.150	-814.67596	128.46095	-611.80676	755.83459	125.68198	-588.82507	-745.32684	-73.85956	506.86163	668.67810	-92.43834	608.09094	-21.73264	1462.12524	-684.25568	
17	0.160	-814.64813	128.43846	-611.80505	755.80328	125.68731	-588.81915	-745.31531	-73.87397	506.89130	668.69250	-92.43195	608.09009	-21.65628	1462.19397	-684.22552	
18	0.170	-814.68341	128.50928	-611.78912	755.82281	125.68898	-588.81091	-745.32458	-73.87700	506.87924	668.72809	-92.44556	608.07416	-21.66036	1462.16113	-684.22772	
19	0.180	-814.71771	128.55009	-611.80005	755.84308	125.68710	-588.77942	-745.33252	-73.82281	506.86563	668.68958	-92.41324	608.11743	-21.70030	1462.20007	-684.26788	
20	0.190	-814.71875	128.50931	-611.79559	755.84070	125.69363	-588.79944	-745.29724	-73.88815	506.83432	668.67584	-92.41355	608.07892	-21.66770	1462.17102	-684.22620	
21	0.200	-814.69342	128.50009	-611.79730	755.81250	125.67841	-588.81055	-745.30365	-73.88257	506.88651	668.63812	-92.43629	608.12830	-21.71388	1462.15637	-684.21057	
22	0.210	-814.69519	128.48251	-611.80249	755.85779	125.68390	-588.76074	-745.33850	-73.90082	506.87064	668.63727	-92.45353	608.09662	-21.72792	1462.14612	-684.20026	
23	0.220	-814.67188	128.48019	-611.79132	755.83606	125.65536	-588.82520	-745.30853	-73.89915	506.86859	668.66833	-92.44296	608.12250	-21.67581	1462.16199	-684.20087	
24	0.230	-814.67755	128.46883	-611.75452	755.85699	125.66106	-588.81262	-745.32562	-73.87480	506.84705	668.70270	-92.46931	608.07263	-21.67141	1462.16675	-684.19409	
25	0.240	-814.64752	128.43944	-611.78912	755.85577	125.66345	-588.79901	-745.27301	-73.90990	506.90939	668.77167	-92.39873	608.09912	-21.64968	1462.18445	-684.19891	
26	0.250	-814.65417	128.45393	-611.80463	755.84808	125.65509	-588.79492	-745.25745	-73.93943	506.86981	668.75348	-92.44125	608.03906	-21.75665	1462.17810	-684.23608	
27	0.260	-814.61713	128.40771	-611.81622	755.83368	125.67696	-588.78503	-745.29663	-73.89111	506.89285	668.68463	-92.45901	608.10107	-21.71719	1462.12158	-684.20343	
28	0.270	-814.63623	128.42699	-611.78308	755.81195	125.64173	-588.79468	-745.29065	-73.90214	506.87256	668.67548	-92.46557	608.09583	-21.75784	1462.14355	-684.21655	
29	0.280	-814.59216	128.40504	-611.79382	755.80927	125.66377	-588.81140	-745.30115	-73.87590	506.88205	668.71539	-92.45065	608.10931	-21.70696	1462.14417	-684.24567	
30	0.290	-814.65479	128.45799	-611.81940	755.82758	125.65417	-588.83258	-745.33099	-73.89295	506.84384	668.75153	-92.41663	608.09314	-21.73191	1462.13611	-684.20837	
